<svg xmlns="http://www.w3.org/2000/svg" id="jedicss-logo" data-name="jedicss logo" viewBox="0 0 240 251"><defs><style>  .j-logo{fill:#604c8e;}</style></defs><title>jedicss</title><polygon class="j-logo" points="0 251 71 251 71 201 48 190 48 229 24 229 24 143 47 143 47 156 71 156 71 121 0 121 0 251"/><polygon class="j-logo" points="170 182 217 201 217 229 193 229 193 208 170 208 170 251 240 251 240 187 193 168 193 168 193 143 217 143 217 156 240 156 240 121 170 121 170 182"/><polygon class="j-logo" points="55 0 37 0 37 88 18 88 18 65 0 74 0 107 55 107 55 0"/><polygon class="j-logo" points="131 74 111 65 111 88 92 88 92 46 111 55 111 37 92 28 92 18 112 18 112 27 131 27 131 0 73 0 73 107 131 107 131 74"/><path class="j-logo" d="M206 89V18L187 0H148V107h39Zm-20-8-8 8H167V18h11l8 8Z"/><rect class="j-logo" x="223" width="17" height="107"/><polygon class="j-logo" points="86 182 133 201 133 229 109 229 109 208 86 208 86 251 156 251 156 187 109 168 109 168 109 143 133 143 133 156 156 156 156 121 86 121 86 182"/></svg>